<svg width="64" height="64" viewBox="0 0 64 64" fill="none" xmlns="http://www.w3.org/2000/svg">
<rect width="64" height="64" rx="10" fill="#FFFF00"/>
<path d="M31.5 50C30.3162 50 29.2216 49.7214 28.2165 49.1643C27.2337 48.6071 26.4519 47.8571 25.8711 46.9143C25.2904 45.95 25 44.9 25 43.7643C25 42.65 25.2904 41.6214 25.8711 40.6786C26.4519 39.7357 27.2337 38.9857 28.2165 38.4286C29.2216 37.8714 30.3162 37.5929 31.5 37.5929C32.6168 37.5929 33.6667 37.8714 34.6495 38.4286C35.6546 38.9857 36.4588 39.7357 37.0619 40.6786C37.6873 41.6214 38 42.65 38 43.7643C38 44.9 37.6985 45.95 37.0954 46.9143C36.4923 47.8571 35.6881 48.6071 34.683 49.1643C33.6778 49.7214 32.6168 50 31.5 50ZM31.5 26.4071C30.3162 26.4071 29.2216 26.1286 28.2165 25.5714C27.2337 25.0143 26.4519 24.2643 25.8711 23.3214C25.2904 22.3571 25 21.3071 25 20.1714C25 19.0571 25.2904 18.0286 25.8711 17.0857C26.4519 16.1429 27.2337 15.3929 28.2165 14.8357C29.2216 14.2786 30.3162 14 31.5 14C32.6168 14 33.6667 14.2786 34.6495 14.8357C35.6546 15.3929 36.4588 16.1429 37.0619 17.0857C37.6873 18.0286 38 19.0571 38 20.1714C38 21.3071 37.6985 22.3571 37.0954 23.3214C36.4923 24.2643 35.6881 25.0143 34.683 25.5714C33.6778 26.1286 32.6168 26.4071 31.5 26.4071Z" fill="black"/>
</svg>
