<svg width="64" height="64" viewBox="0 0 64 64" fill="none" xmlns="http://www.w3.org/2000/svg">
<g clip-path="url(#clip0_50_422)">
<rect width="64" height="64" rx="10" fill="#FFFF00"/>
<path d="M55.7353 45.2647H50.2706L41.0254 30.3973H40.8536V45.2647H34.3235V17.7353H39.8912L48.999 32.5266H49.2052V17.7353H55.7353V45.2647Z" fill="black"/>
<path d="M31.2646 31.5C31.2646 34.3861 30.6959 36.8653 29.5585 38.9374C28.4211 41.0095 26.8695 42.5821 24.9037 43.6551C22.938 44.7282 20.7311 45.2647 18.2832 45.2647C15.8105 45.2647 13.5913 44.7282 11.6256 43.6551C9.6598 42.5697 8.10821 40.991 6.97078 38.9189C5.83336 36.8468 5.26465 34.3738 5.26465 31.5C5.26465 28.6139 5.83336 26.1347 6.97078 24.0626C8.10821 21.9905 9.6598 20.4179 11.6256 19.3449C13.5913 18.2718 15.8105 17.7353 18.2832 17.7353C20.7311 17.7353 22.938 18.2718 24.9037 19.3449C26.8695 20.4179 28.4211 21.9905 29.5585 24.0626C30.6959 26.1347 31.2646 28.6139 31.2646 31.5ZM12.5343 31.5C12.5343 33.9545 13.0288 35.8354 14.0179 37.1428C15.0069 38.4502 16.4287 39.1101 18.2832 39.1224C20.1253 39.1101 21.5409 38.4502 22.53 37.1428C23.519 35.8354 24.0074 33.9545 23.995 31.5C24.0074 29.0332 23.519 27.1461 22.53 25.8387C21.5409 24.5313 20.1253 23.8776 18.2832 23.8776C16.4287 23.8776 15.0069 24.5313 14.0179 25.8387C13.0288 27.1461 12.5343 29.0332 12.5343 31.5Z" fill="black"/>
</g>
<defs>
<clipPath id="clip0_50_422">
<rect width="64" height="64" rx="10" fill="white"/>
</clipPath>
</defs>
</svg>
